<svg width="83" height="24" viewBox="0 0 83 24" fill="none" xmlns="http://www.w3.org/2000/svg">
<path d="M8.5389 9.73518C5.36712 9.73518 3.98525 10.7743 3.25623 12.3357L1.67307 16.0189C-0.470465 20.5834 2.42385 21.6824 4.5293 21.6824H11.2972L14.7029 13.6849H10.9109L7.07542 16.3671H9.95885L8.66403 19.3974H5.0951C5.0951 19.3974 3.8166 19.3974 4.42593 18.0101L6.55314 13.0538C6.92309 12.2215 7.53786 12.0093 8.38113 12.0093H13.2884L16.6016 9.72974H8.5389V9.73518Z" fill="white"/>
<path d="M24.0496 9.7352C21.9986 9.7352 21.2804 10.4261 20.6874 11.857L18.1631 17.7979C16.9009 20.8065 18.7289 21.6878 20.2467 21.6878H26.6501L27.6185 19.4029H21.8571C21.4219 19.4029 21.2423 19.1254 21.4328 18.6793L22.2815 16.6228H28.1463L29.0494 14.5173H23.1846L23.9462 12.7329C24.1421 12.265 24.4522 12.0147 25.1649 12.0147H28.9623L32.2375 9.7352H24.0496Z" fill="white"/>
<path d="M38.6409 13.6904L36.6225 18.4508L35.3603 14.3161C35.2352 13.7775 35.1046 13.6904 34.5279 13.6904H32.3953C31.7188 13.6904 31.6429 13.8697 31.4272 14.3787C31.4052 14.4305 31.3818 14.4857 31.3562 14.5446L28.3041 21.6879H30.5999L32.6347 16.9112L33.9077 20.9915C34.0383 21.4376 34.1471 21.6879 34.887 21.6879H36.7912C37.5061 21.6879 37.6153 21.4502 37.8734 20.8887C37.8942 20.8435 37.916 20.7962 37.9391 20.7467L40.9368 13.685H38.6409V13.6904Z" fill="white"/>
<path d="M77.665 13.6904L74.5748 17.145L73.7207 13.6904H70.5489L72.045 19.2342L71.0005 21.6878H74.2321L75.2821 19.2342L80.4668 13.6904H77.665Z" fill="white"/>
<path d="M61.2894 15.6816C61.8389 14.3922 62.8345 13.6904 64.3524 13.6904L64.3578 13.6958H69.8255L69.0855 15.4422H65.8594C64.7822 15.4259 64.5754 15.6489 64.2272 16.4759C63.8791 17.3028 63.4982 18.2059 63.1827 18.9513C62.9215 19.5715 63.2099 19.9577 63.7594 19.9577H65.3208C65.8267 19.9469 66.0498 19.8054 66.2674 19.343L66.6482 18.4888H65.1684L65.9083 16.7533H69.8146L68.2042 20.5344C67.9376 21.171 67.3501 21.6932 66.4306 21.6932H62.4319C60.6039 21.6987 59.2057 20.5127 60.1197 18.4072C60.5441 17.4279 60.7998 16.8295 61.2894 15.6816Z" fill="white"/>
<path d="M44.1737 13.6904C43.7331 13.6904 42.7211 13.6904 42.2696 14.7077L39.8867 20.2842C39.495 21.1057 40.1315 21.6878 40.9965 21.6878H46.6274L47.3618 19.9523H43.8691C43.7276 19.9523 43.6678 19.9033 43.6406 19.8598C43.5862 19.7782 43.6188 19.6803 43.6406 19.6368L44.1302 18.4888H47.9929L48.7274 16.7588H44.8592L45.3162 15.7033C45.3434 15.638 45.425 15.4476 45.8276 15.4476H49.2932L50.0385 13.6904H44.1737Z" fill="white"/>
<path d="M48.3792 21.6878L51.7741 13.6958H56.3168C58.7814 13.6958 59.6736 14.4901 59.728 15.5673C59.8282 17.4894 57.7123 18.3997 56.8919 18.7526C56.7765 18.8022 56.6867 18.8408 56.6324 18.8697L59.32 24H58.7542L53.3681 18.5487C53.3681 18.5487 57.0241 17.0036 56.5834 15.7904C56.5127 15.5945 56.2461 15.4259 55.7456 15.4531H54.5161L51.8611 21.6878H48.3792Z" fill="white"/>
<path d="M14.9913 16.3779L16.112 13.6904H18.5983L17.4503 16.3779H14.9913Z" fill="white"/>
<path d="M36.5191 12.0637L37.5093 9.7352H37.0795L35.4093 11.1443L34.9087 9.7352H34.4681L33.4779 12.0637H33.9186L34.5279 10.622L34.6204 10.3717C34.6204 10.437 34.6204 10.5023 34.6585 10.6111L35.0393 11.7808H35.1481L36.5191 10.6166C36.5518 10.5893 36.666 10.486 36.7585 10.3717C36.6823 10.5077 36.6497 10.5839 36.6334 10.622L36.024 12.0637H36.5191Z" fill="white"/>
<path fill-rule="evenodd" clip-rule="evenodd" d="M38.3688 10.2847L38.3731 10.2751C38.4183 10.1731 38.5104 9.96536 38.679 9.84945C38.8367 9.74064 39.0271 9.7352 39.1795 9.7352H40.8932C41.0401 9.7352 41.2305 9.7352 41.2958 9.84945C41.372 9.96914 41.2795 10.1868 41.236 10.2847L40.7137 11.5142L40.7094 11.5239C40.6642 11.6258 40.5722 11.8336 40.4036 11.9495C40.2458 12.0583 40.0554 12.0637 39.9031 12.0637H38.1893C38.0424 12.0637 37.852 12.0637 37.7867 11.9495C37.7106 11.8298 37.803 11.6122 37.8466 11.5142L38.3688 10.2847ZM40.1207 11.6394L40.7463 10.1596H38.9619L38.3362 11.6394H40.1207Z" fill="white"/>
<path d="M41.965 12.0637H42.509L43.3142 10.1596H44.386L44.5655 9.7352H41.8834L41.7038 10.1596H42.7756L41.965 12.0637Z" fill="white"/>
<path fill-rule="evenodd" clip-rule="evenodd" d="M44.9518 10.2847L44.9561 10.2751C45.0012 10.1731 45.0933 9.96536 45.2619 9.84945C45.4197 9.74064 45.6101 9.7352 45.7624 9.7352H47.4761C47.623 9.7352 47.8134 9.7352 47.8787 9.84945C47.9549 9.96914 47.8624 10.1868 47.8189 10.2847L47.2966 11.5142L47.2923 11.5239C47.2472 11.6258 47.1551 11.8335 46.9865 11.9495C46.8287 12.0583 46.6383 12.0637 46.486 12.0637H44.7722C44.6253 12.0637 44.4349 12.0637 44.3696 11.9495C44.2935 11.8298 44.386 11.6122 44.4295 11.5142L44.9518 10.2847ZM46.7036 11.6394L47.3293 10.1596H45.5448L44.9191 11.6394H46.7036Z" fill="white"/>
<path fill-rule="evenodd" clip-rule="evenodd" d="M51.54 9.83313C51.4747 9.75152 51.3278 9.7352 51.2136 9.7352H49.2006L48.2104 12.0637H48.7545L49.1407 11.1552H50.5933C50.6532 11.1552 50.8762 11.1497 51.0395 11.0463C51.2027 10.943 51.2843 10.7634 51.306 10.7036L51.5237 10.1868C51.5726 10.0779 51.6216 9.93106 51.54 9.83313ZM49.3094 10.758L49.576 10.1324H50.762C50.849 10.1324 50.9034 10.1432 50.9306 10.1704C50.9742 10.214 50.947 10.2792 50.9306 10.3173L50.8218 10.573C50.811 10.6057 50.7783 10.6764 50.7022 10.7199C50.6532 10.7471 50.5933 10.758 50.5009 10.758H49.3094Z" fill="white"/>
<path d="M52.7153 10.6383H54.4127L54.7936 9.7352H55.3376L54.3474 12.0637H53.8034L54.2332 11.0627H52.5358L52.1114 12.0637H51.5674L52.5575 9.7352H53.0961L52.7153 10.6383Z" fill="white"/>
<path fill-rule="evenodd" clip-rule="evenodd" d="M56.2504 10.2751L56.2461 10.2847L55.7238 11.5142C55.6803 11.6122 55.5878 11.8298 55.664 11.9495C55.7293 12.0637 55.9197 12.0637 56.0666 12.0637H57.7803C57.9327 12.0637 58.1231 12.0583 58.2808 11.9495C58.4494 11.8335 58.5415 11.6258 58.5867 11.5239L58.5909 11.5142L59.1132 10.2847C59.1567 10.1868 59.2492 9.96914 59.1731 9.84945C59.1078 9.7352 58.9174 9.7352 58.7705 9.7352H57.0567C56.9044 9.7352 56.714 9.74064 56.5562 9.84945C56.3876 9.96536 56.2956 10.1731 56.2504 10.2751ZM58.6236 10.1596L57.9979 11.6394H56.2135L56.8391 10.1596H58.6236Z" fill="white"/>
<path d="M62.8779 9.7352L62.7093 10.1324H60.8704L60.6528 10.6546H61.7246L61.5559 11.0518H60.4841L60.2285 11.6394H62.0945L61.915 12.0637H59.5103L60.5005 9.7352H62.8779Z" fill="white"/>
<path d="M67.0127 12.0637L68.0029 9.7352H67.5731L65.9029 11.1443L65.4024 9.7352H64.9617L63.9715 12.0637H64.4122L65.0215 10.622L65.114 10.3717C65.114 10.437 65.114 10.5023 65.1521 10.6111L65.5329 11.7808H65.6417L67.0127 10.6166C67.0454 10.5893 67.1596 10.486 67.2521 10.3717C67.176 10.5077 67.1433 10.5838 67.127 10.6219L66.5176 12.0637H67.0127Z" fill="white"/>
<path fill-rule="evenodd" clip-rule="evenodd" d="M70.5435 9.7352L70.8917 12.0637H70.2824L70.2225 11.5577H68.7427L68.264 12.0637H67.7199L70.0267 9.7352H70.5435ZM70.1736 11.1334L70.0702 10.1868L69.1453 11.1334H70.1736Z" fill="white"/>
<path d="M72.2247 11.6393L72.8504 10.1595H74.3138L74.1289 10.6002L74.7056 10.5132L74.8035 10.2847L74.8044 10.2826C74.8482 10.1784 74.939 9.96288 74.8633 9.84399C74.798 9.72974 74.6076 9.72974 74.4607 9.72974H73.0734C72.9265 9.72974 72.7307 9.73518 72.5729 9.84399C72.4045 9.96505 72.3124 10.1727 72.2672 10.2747L72.2628 10.2847L71.7405 11.5142C71.697 11.6121 71.6045 11.8297 71.6807 11.9494C71.7459 12.0637 71.9364 12.0637 72.0833 12.0637H73.4706C73.6229 12.0637 73.8133 12.0582 73.9711 11.9494C74.1397 11.8335 74.2318 11.6258 74.2769 11.5238L74.2812 11.5142L74.3954 11.2476L73.9004 11.1334L73.6828 11.6393H72.2247Z" fill="white"/>
<path d="M77.3712 9.7352L77.6596 12.0637H77.0285L76.8816 10.2303L75.157 12.0637H74.5966L76.8435 9.7352H77.3712Z" fill="white"/>
<path fill-rule="evenodd" clip-rule="evenodd" d="M79.1273 10.275L79.123 10.2847L78.6007 11.5142C78.5572 11.6122 78.4647 11.8298 78.5409 11.9495C78.6062 12.0637 78.7966 12.0637 78.9435 12.0637H80.6572C80.8095 12.0637 81 12.0583 81.1577 11.9495C81.3263 11.8335 81.4184 11.6258 81.4636 11.5238L81.4678 11.5142L81.9901 10.2847C82.0336 10.1868 82.1261 9.96914 82.05 9.84945C81.9847 9.7352 81.7943 9.7352 81.6474 9.7352H79.9336C79.7867 9.7352 79.5909 9.74064 79.4331 9.84945C79.2645 9.96535 79.1725 10.1731 79.1273 10.275ZM81.5005 10.1596L80.8748 11.6394H79.0904L79.716 10.1596H81.5005Z" fill="white"/>
</svg>
