<svg width="120" height="46" viewBox="0 0 120 46" fill="none" xmlns="http://www.w3.org/2000/svg">
<path d="M40.2625 42.1785C40.6997 41.7341 41.2259 41.5137 41.848 41.5137C42.4701 41.5137 42.9962 41.7341 43.4263 42.1713C43.8565 42.6086 44.0733 43.1383 44.0733 43.7533C44.0733 44.3683 43.8565 44.8944 43.4192 45.3352C42.982 45.7724 42.4558 45.9928 41.8337 45.9928C41.2116 45.9928 40.6891 45.7724 40.2554 45.3352C39.8252 44.8979 39.6084 44.3683 39.6084 43.7533C39.6084 43.1383 39.8252 42.6121 40.2625 42.1749M43.1526 45.0757C43.5116 44.706 43.6929 44.2652 43.6929 43.7497C43.6929 43.2343 43.5152 42.7899 43.1597 42.4273C42.8007 42.0647 42.3634 41.8834 41.848 41.8834C41.3325 41.8834 40.8882 42.0647 40.5291 42.4344C40.1701 42.8041 39.9888 43.2449 39.9888 43.7639C39.9888 44.2829 40.163 44.7166 40.522 45.0863C40.881 45.4489 41.3183 45.6302 41.8337 45.6302C42.3492 45.6302 42.7936 45.4489 43.1526 45.0792M40.9735 44.7913V42.6157H41.9902C42.4487 42.6157 42.7438 42.8823 42.7438 43.2698C42.7438 43.5613 42.5803 43.7853 42.2994 43.8706L42.9713 44.7913H42.431L41.8018 43.9275H41.4569V44.7913H40.9735V44.7913ZM40.746 40.9165H41.2579C41.4498 40.9165 41.5494 40.8383 41.5494 40.6712C41.5494 40.5041 41.4427 40.4117 41.2579 40.4117H40.746V40.9165Z" fill="white"/>
<path fill-rule="evenodd" clip-rule="evenodd" d="M43.7894 7.90358e-05L44.0588 0.254712C44.1252 0.328519 45.0663 1.41717 45.3799 3.4653C45.5608 4.64621 45.498 5.92306 45.1954 7.25528C44.8116 8.93807 44.044 10.7205 42.9111 12.5546L42.6343 13.0011L42.9074 13.4477C45.1327 17.0753 46.3062 21.2527 46.3062 25.5298V28.423L46.2324 28.3714L45.033 27.53L44.9002 28.9913C44.4832 33.5194 42.4277 37.7374 39.1101 40.8742C35.6301 44.166 31.0762 45.9853 26.2862 46.0001H1.32843V27.5004L-9.29236e-05 28.4267V25.5335C-9.29236e-05 21.2564 1.17343 17.0789 3.3987 13.4513L3.67917 12.9937L3.38763 12.5435C-1.76776 4.59823 2.12554 0.380183 2.23994 0.258402L2.51302 7.90358e-05C3.49834 0.166144 7.36581 0.874688 13.0674 2.60176L13.3442 2.68664L13.6135 2.58331C14.8424 2.11833 18.2302 1.04075 23.1494 1.04075C28.0686 1.04075 31.4563 2.12202 32.6852 2.58331L32.9546 2.68664L33.2314 2.60176C38.944 0.870998 42.8041 0.166144 43.7857 7.90358e-05H43.7894ZM41.5974 12.9126C46.8266 4.77908 43.4831 0.808277 43.4831 0.808277C43.4831 0.808277 40.0253 1.30647 32.8771 3.50222C32.8771 3.50222 29.2237 1.80467 23.1199 1.80467C17.0161 1.80467 13.3626 3.50222 13.3626 3.50222C6.21815 1.30647 2.764 0.808277 2.764 0.808277C2.764 0.808277 -1.11823 4.82705 4.64976 12.9126C2.20676 16.4922 0.778598 20.821 0.778598 25.4855V26.7587L0.815501 26.7329V26.7587L2.10712 25.7918V45.1439H23.1199C27.4486 45.1439 29.7735 43.7822 31.0135 42.4648C32.1723 41.2322 32.39 39.9074 32.39 39.9074C32.39 39.9074 34.0912 40.3982 36.2796 41.9592H36.287C36.8184 41.5938 37.3129 41.2174 37.7742 40.8373C35.9679 39.3095 32.7309 38.2158 32.2507 38.0535L32.2135 38.0409C32.2011 38.0367 32.1936 38.0341 32.1913 38.0331C34.55 38.1039 37.3641 39.2113 38.8518 39.8741C39.2651 39.4756 39.6452 39.0697 39.9995 38.6563C36.6634 36.8259 32.9103 36.5787 32.9103 36.5787C32.9103 36.5787 35.4567 36.1691 40.8593 37.5824C41.1545 37.1654 41.4903 36.6414 41.7376 36.2244C41.7247 36.2189 41.7127 36.2143 41.7007 36.2096L41.6912 36.206C41.6823 36.2025 41.6733 36.199 41.6638 36.1949C38.158 34.8184 33.4307 35.0472 33.4307 35.0472C33.4307 35.0472 35.0064 34.3276 37.9329 34.298C39.409 32.7223 44.3577 24.2456 38.1543 10.6652C38.1543 10.6652 43.3355 16.4295 43.8485 23.9356L42.4609 23.1865C42.4609 23.1865 42.9443 30.0505 40.446 34.5564C41.1361 34.7003 41.8926 34.9439 42.3391 35.1062C43.1695 33.4087 43.6271 31.7591 43.8706 30.3236C44.3245 27.6296 44.3171 25.9247 44.3171 25.9247L45.4316 26.7587V26.7329L45.4685 26.7587V25.4855C45.4685 20.8246 44.0404 16.4959 41.5974 12.9126ZM5.72733 39.0549C5.42749 38.7051 4.79271 37.8511 4.7515 37.7956C8.77326 36.1729 12.7759 36.6746 12.7611 36.6746C8.46556 37.3241 5.72733 39.0549 5.72733 39.0549ZM8.11867 41.4425C8.11867 41.4425 7.98951 41.3208 7.81237 41.1584C7.51714 40.9001 7.23299 40.6417 6.9636 40.376C6.9636 40.376 11.1005 38.1065 13.9346 38.195C13.9346 38.195 11.1078 39.4498 8.11867 41.4425ZM12.6098 31.01C12.6098 27.2348 15.0713 24.681 15.0713 24.681C10.6096 25.7143 9.21101 23.0388 9.21101 23.0388C13.2888 23.0388 13.8682 21.8948 13.8682 21.8948C8.59472 21.0461 10.462 16.9424 10.462 16.9424H10.4768C10.9196 17.2782 11.9861 17.8982 14.193 18.2746C14.1487 18.3743 14.0638 18.7654 14.0638 18.9832C14.0638 20.1456 15.0085 21.0903 16.171 21.0903C16.5658 21.0903 17.0899 20.9317 17.4921 20.57C17.9165 21.7435 17.5918 23.0388 17.5918 23.0388L19.555 21.81C19.555 21.81 19.4627 20.3818 18.6177 19.2046C17.8984 18.1651 16.7863 17.8562 15.8506 17.5963L15.8506 17.5962L15.8505 17.5962L15.8505 17.5962C15.6003 17.5267 15.3628 17.4608 15.1488 17.3853L15.0274 17.3423L15.0274 17.3423L15.0273 17.3423C14.0875 17.01 13.4975 16.8014 12.9346 16.3483H12.9382C11.8644 15.4109 11.8496 12.8572 14.3184 11.2741C14.3184 11.2741 11.1005 11.9051 8.91578 16.2376C6.7311 20.57 7.37322 24.6958 7.37322 24.6958C7.37322 24.6958 4.91915 18.95 9.94169 11.2593C9.94169 11.2593 5.03355 15.2965 5.17009 22.9687C5.21438 28.6002 7.15918 32.8994 8.25521 34.2833C10.462 34.298 12.4585 35.1948 12.4585 35.1948C12.4585 35.1948 9.94907 35.1653 7.52822 35.5269C6.15541 35.7336 4.83796 36.1395 3.95966 36.5639C3.74932 36.2023 3.49468 35.7447 3.32124 35.3904C3.32124 35.3904 4.4025 34.8516 5.78638 34.5416C3.28433 29.722 3.77146 23.1717 3.77146 23.1717L2.39865 23.9208C2.49829 15.7689 9.58004 9.05248 9.58004 9.05248C8.67222 8.40667 6.45433 8.38822 6.45433 8.38822C7.91939 7.45088 9.70551 7.94907 9.70551 7.94907C8.65008 6.95268 6.68682 6.77555 6.68682 6.77555C8.91209 5.8382 11.1115 7.2147 11.1115 7.2147C11.1115 7.2147 8.45449 4.01149 3.82681 3.18854C3.82681 3.18854 2.91161 6.49877 6.42481 10.8275L5.60186 11.8165C5.60186 11.8165 1.16239 5.96367 3.336 2.2106C7.21823 2.64606 13.4697 4.923 13.4697 4.923C13.4697 4.923 15.5547 4.10374 17.6471 3.64983C19.7395 3.19961 23.1531 3.18854 23.1531 3.18854C17.6471 3.64983 14.7502 5.69428 14.2741 6.05962C17.1157 5.09275 22.3265 4.10374 23.1273 7.45826C24.1015 3.65721 30.0946 5.08537 31.2238 7.19624C29.22 6.2589 26.4264 5.8751 23.1273 7.64277C16.3001 3.98196 11.5359 9.87174 11.5359 9.87174C21.0164 4.94145 23.1273 10.3293 23.1273 10.3293C23.1273 10.3293 23.8358 7.84943 27.4634 7.7867C31.1427 7.7867 33.1391 10.6984 33.1391 10.6984C27.611 6.97851 23.1273 10.5139 23.1273 10.5139C18.6177 7.99705 15.2041 10.8165 15.2041 10.8165C16.0824 10.5028 16.9017 10.2998 17.6397 10.2814C21.3116 10.1817 23.1273 12.8461 23.1273 12.8461C23.1273 12.8461 25.1643 9.8865 29.3012 10.3404C33.7296 11.1006 34.0839 14.1082 33.9584 14.9828C33.9399 15.3777 33.7997 15.7726 33.5008 16.1564C32.9472 16.7431 32.032 17.1048 31.1021 17.3889C30.9695 17.4297 30.7991 17.4763 30.6085 17.5284C29.9874 17.6984 29.1521 17.9269 28.7144 18.2008C28.1461 18.5588 28.0723 18.6215 27.7402 19.068C27.7273 19.0828 27.7153 19.0985 27.7033 19.1142C27.6913 19.1299 27.6793 19.1455 27.6664 19.1603C27.6664 19.1603 27.6627 19.1677 27.659 19.1677C27.7881 18.5662 28.1498 17.7764 29.0982 16.7579C28.8989 16.5217 28.6849 16.2929 28.4635 16.0752C27.0833 14.7208 25.6662 13.7613 23.6882 13.3812C25.216 14.171 27.1386 16.3151 27.1386 16.3151L26.0094 17.7838C26.0094 17.7838 26.3231 19.9427 26.9246 24.9172C27.3158 28.1647 27.3674 31.021 27.3674 31.021C27.3674 31.021 25.7695 31.6447 23.1162 31.6447C20.4628 31.6447 18.8612 31.021 18.8612 31.021C18.8612 31.021 18.8907 29.1427 19.1122 26.7033C18.0457 29.0984 17.7467 30.8144 17.6656 31.5155C17.6397 31.748 17.7837 32.1318 17.8648 32.2499C18.5964 33.3288 19.6036 33.6967 20.5097 34.0277C21.6925 34.4596 22.7029 34.8287 22.7029 36.634C22.7029 39.8225 18.7321 39.6859 18.7321 39.6859C16.2854 39.6859 12.595 36.9551 12.595 31.01H12.6098ZM16.1562 19.8024C16.5621 19.8024 16.8943 19.5109 16.9607 19.1234C17.1489 19.2636 17.3187 19.4186 17.47 19.581C17.2412 20.0792 16.7393 20.4261 16.1562 20.4261C15.3591 20.4261 14.7096 19.7803 14.7096 18.9795C14.7096 18.7359 14.7723 18.5034 14.8794 18.3041C14.9918 18.3371 15.1032 18.368 15.213 18.3985L15.214 18.3988L15.2149 18.399L15.2155 18.3992L15.2162 18.3994C15.3144 18.4266 15.4115 18.4536 15.5067 18.4813C15.3997 18.6215 15.337 18.7913 15.337 18.9795C15.337 19.4297 15.7023 19.7987 16.1562 19.7987V19.8024ZM30.7699 18.4813C30.9729 18.4222 31.1832 18.3632 31.3973 18.3041C31.5043 18.5071 31.567 18.7359 31.567 18.9795C31.567 19.7766 30.9212 20.4261 30.1204 20.4261C29.5374 20.4261 29.0318 20.0792 28.8067 19.581C28.958 19.4186 29.1277 19.2636 29.3159 19.1234C29.3824 19.5072 29.7182 19.8024 30.1204 19.8024C30.5707 19.8024 30.9397 19.4371 30.9397 18.9832C30.9397 18.795 30.877 18.6215 30.7699 18.485V18.4813ZM27.0685 31.9805C27.0685 31.9805 26.7512 32.5082 25.5924 32.8182L25.4632 32.8578C24.6693 33.1004 24.0242 33.2976 23.821 33.8405C23.6808 34.2132 23.4003 34.4051 23.1125 34.4198C22.8246 34.4051 22.5442 34.2132 22.4039 33.8405C22.2008 33.2976 21.5557 33.1004 20.7618 32.8578L20.6326 32.8182C19.4738 32.5119 19.1565 31.9805 19.1565 31.9805C19.1565 31.9805 20.9573 32.5784 22.8911 32.6079H23.3339C25.2713 32.5784 27.0685 31.9805 27.0685 31.9805ZM23.1236 42.3946C20.2377 42.3946 18.1084 41.52 18.1084 41.52C21.8393 41.2174 23.1346 39.4904 23.1346 39.4904C23.1346 39.4904 24.3857 41.3724 28.1387 41.52C28.1387 41.52 26.0094 42.391 23.1236 42.3946ZM26.7807 36.0805C26.7807 36.0805 28.0133 36.5418 31.3678 36.4753C31.3678 36.4753 29.2643 38.3316 25.5666 37.1691C25.5666 37.1691 26.8471 39.5199 31.0172 38.0622C29.8806 39.1545 28.5668 39.6823 27.4929 39.6823C27.4929 39.6823 23.5221 39.9701 23.5221 36.6303C23.5221 35.062 24.2676 34.6339 25.2603 34.191C26.253 33.7519 30.1758 33.1061 32.0652 33.8995C31.3936 34.8405 30.0392 35.8111 26.777 36.0805H26.7807ZM33.6041 24.6774C33.6041 24.6774 35.2943 28.4304 33.5893 32.0396C34.2056 27.1167 31.1427 23.0942 31.1427 23.0942C32.6446 23.4374 35.5526 21.8912 36.1652 19.0238C36.1652 19.0238 37.0214 23.382 33.6041 24.6774ZM35.3865 6.80507C34.4566 5.64261 33.4491 5.10383 32.8513 4.86764C33.7554 4.54289 39.2983 2.59809 42.8558 2.19953C42.8558 2.19953 37.335 4.5023 35.3865 6.80507ZM13.8682 15.1858C14.3 15.5401 14.8683 15.8279 15.5067 16.0457C16.529 14.7541 17.8944 13.7503 19.4665 13.1672C17.3445 13.1894 15.4034 13.9422 13.8719 15.1858H13.8682ZM30.8362 16.0936L30.8391 16.0926L30.8399 16.0936H30.8362ZM32.4747 15.2338C32.0399 15.5875 31.4727 15.8713 30.8391 16.0926C29.817 14.8015 28.4518 13.7944 26.8802 13.2152C28.9984 13.2373 30.9432 13.9901 32.4747 15.2338ZM19.0902 16.3151L20.2195 17.7839L20.2158 17.7802C20.2158 17.7802 20.1051 18.8614 19.891 20.3782C19.891 20.3782 19.4998 18.0385 17.1454 16.7579L17.7654 16.0752C19.1456 14.7172 20.5627 13.7614 22.5407 13.3813C21.0129 14.171 19.0902 16.3151 19.0902 16.3151ZM14.311 34.9438C14.311 34.9438 15.9421 35.7003 20.5513 36.1137C20.5513 36.1137 18.6397 36.693 15.145 36.4864C14.6173 35.9513 14.311 34.9438 14.311 34.9438ZM21.1506 37.1772L21.1529 37.1765V37.1728L21.1506 37.1772ZM21.1506 37.1772C21.1042 37.2676 20.3392 38.7043 18.6915 38.7043C17.577 38.7043 16.8537 38.4459 16.0418 37.7374C17.0083 37.8001 19.1695 37.8407 21.1506 37.1772ZM13.7097 31.9397C13.7362 32.5274 13.8408 32.9639 13.9572 33.4495C13.9862 33.5708 14.016 33.695 14.0455 33.8255C14.1689 33.8539 14.3429 33.9059 14.5601 33.9707L14.5605 33.9708L14.5606 33.9708C15.3307 34.2007 16.6482 34.5941 18.2193 34.689C16.673 34.0617 14.9718 33.0431 13.7134 31.9397H13.7097Z" fill="white"/>
<path fill-rule="evenodd" clip-rule="evenodd" d="M61.8475 9.25346C59.8781 8.6669 58.5841 8.25454 57.9976 8.01992C57.4395 7.75685 57.1444 7.49024 57.1444 7.22718C57.1444 6.72594 57.763 6.46288 58.9681 6.46288C60.1732 6.46288 61.556 6.66906 63.0846 7.08143C64.6132 7.46536 65.8787 7.96304 66.8776 8.54959V2.66983C64.5563 1.58204 62.0857 1.02393 59.4409 1.02393C54.0339 1.02393 50.5928 3.19951 50.5928 7.40137C50.5928 10.8994 53.0918 12.723 57.3541 13.985C59.0285 14.4862 60.1767 14.8666 60.7633 15.1332C61.3498 15.3963 61.6449 15.6629 61.6449 15.9579C61.6449 16.6049 60.8521 16.9284 59.2631 16.9284C57.8803 16.9284 56.3232 16.6334 54.5884 16.0753C52.8537 15.5171 51.5313 14.8417 50.5928 14.049V20.2202C52.9141 21.6884 55.7651 22.4243 59.1458 22.4243C61.8795 22.4243 64.0551 21.8057 65.701 20.6006C67.3753 19.3671 68.2001 17.7212 68.2001 15.6629C68.2001 12.5168 66.1133 10.5474 61.8511 9.25346H61.8475ZM70.7703 18.0303C70.7703 20.2272 72.5513 22.0118 74.7482 22.0118H77.0873V1.43263H70.7668V18.0303H70.7703ZM80.4826 1.43263H86.8031V16.5728H96.4226V22.0118H84.464C82.2635 22.0118 80.4826 20.2272 80.4826 18.0303V1.43263ZM118.264 1.43619L110.974 10.9863L119.732 22.0082H111.971L105.036 13.1317V22.0082H98.7153V1.43263H105.036V9.1076L109.654 2.99677H109.661C110.386 2.04762 111.527 1.43619 112.814 1.43619H118.264ZM87.8693 27.8807C88.4665 26.441 89.8884 25.4243 91.545 25.4243H91.5485H95.1567L103.514 45.9964H96.7244L95.2527 42.2353H88.5518L87.0516 45.9964H80.5284L87.8693 27.8807ZM91.9005 32.6265L90.3719 37.5038H93.4006L91.9005 32.6265ZM78.5234 25.4243L74.2043 36.448L70.3223 25.4243H65.5624L61.684 36.448L58.4313 27.9234C57.8447 26.4588 56.4121 25.4243 54.7378 25.4243H50.5928L58.2393 44.9512L58.6481 45.9999H64.144L67.9192 35.3602L71.6412 45.9999H77.0197L85.2599 25.4279H78.5305L78.5234 25.4243ZM111.587 27.248C112.295 26.1531 113.525 25.4243 114.929 25.4243L114.933 25.4279H119.696L112.17 36.9101V45.9999H105.85V37.0559L98.3526 25.4243H105.494L109.081 31.2401L111.584 27.248H111.587Z" fill="white"/>
</svg>
