<svg width="60" height="13" viewBox="0 0 60 13" fill="none" xmlns="http://www.w3.org/2000/svg">
<path d="M1.11021 12.7845L8.9533 2.40608V12.7845H10.2605V0.215469H9.09656L1.30718 10.558V0.215469H0V12.7845H1.11021Z" fill="white"/>
<path d="M25.3295 13C27.0127 13 28.4094 12.3715 29.5196 11.1326C30.6477 9.89365 31.2028 8.34945 31.2028 6.5C31.2028 4.65055 30.6477 3.10635 29.5196 1.8674C28.4094 0.628453 27.0127 0 25.3295 0C23.7716 0 22.4465 0.538674 21.3542 1.63398C20.2619 2.72928 19.6352 4.09392 19.474 5.76381H16.8954V0.215469H15.5704V12.7845H16.8954V6.96685H19.4561C19.5635 8.70856 20.1724 10.145 21.2647 11.2942C22.357 12.4254 23.7179 13 25.3295 13ZM22.0884 10.3066C21.2109 9.33702 20.7812 8.06216 20.7812 6.5C20.7812 4.93785 21.2109 3.66298 22.0884 2.69337C22.9658 1.72376 24.0402 1.23895 25.3295 1.23895C26.6187 1.23895 27.6931 1.72376 28.5526 2.69337C29.4301 3.66298 29.8598 4.93785 29.8598 6.5C29.8598 8.06216 29.4301 9.33702 28.5526 10.3066C27.6931 11.2762 26.6187 11.7611 25.3295 11.7611C24.0402 11.7611 22.9658 11.2762 22.0884 10.3066Z" fill="white"/>
<path d="M33.99 12.7845C34.0795 12.8025 34.2586 12.8025 34.4913 12.8025C36.3715 12.7307 37.3564 11.7431 37.8578 9.60635C38.2159 8.11602 38.3233 6.60774 38.395 4.29144L38.4845 1.41851H43.7132V12.7845H45.0383V0.215469H37.1952L37.1236 3.64503C37.1057 4.48895 37.0878 5.22514 37.052 5.83563C37.0162 6.44613 36.9624 7.07459 36.8908 7.73895C36.8371 8.38536 36.7297 8.92403 36.6043 9.35497C36.2283 10.7196 35.6374 11.5994 34.4913 11.5994C34.2586 11.5994 34.0795 11.5815 33.99 11.5635V12.7845Z" fill="white"/>
<path d="M50.8855 12.7845L54.8429 7.12845H58.6749V12.7845H60V0.215469H54.3773C51.9241 0.215469 50.4379 1.56216 50.4379 3.62707C50.4379 5.4047 51.5123 6.69751 53.3925 7.00276L49.3456 12.7845H50.8855ZM54.4669 5.92541C52.7478 5.92541 51.7451 5.1174 51.7451 3.68094C51.7451 2.24448 52.7478 1.41851 54.4669 1.41851H58.6749V5.92541H54.4669Z" fill="white"/>
</svg>
