<svg width="60" height="23" viewBox="0 0 60 23" fill="none" xmlns="http://www.w3.org/2000/svg">
<path d="M6.15248 22.5577L15.3501 3.94918V0.442308H0V4.51786H10.2852L1.39829 22.5577H6.15248Z" fill="white"/>
<path d="M26.6391 15.7967V11.7843H17.0375V15.7967H26.6391Z" fill="white"/>
<path d="M39.223 22.5577V0.442308H35.3389L30.2429 3.22253V7.6772L34.8417 5.30769V22.5577H39.223Z" fill="white"/>
<path d="M52.1074 23C54.3758 23 56.2402 22.2734 57.7317 20.8201C59.2542 19.3668 60 17.5027 60 15.1964C60 13.0165 59.3475 11.3104 58.0113 10.0151C56.6752 8.71978 55.0283 8.05632 53.0396 8.05632C50.8024 8.05632 49.1244 8.75137 47.9747 10.1099C48.099 8.37225 48.6583 6.95055 49.6837 5.81319C50.7091 4.67582 52.1385 4.10714 53.9097 4.10714C55.4944 4.10714 56.9548 4.58105 58.322 5.52885V1.4217C56.9238 0.473901 55.2769 0 53.4125 0C46.6696 0 43.438 6.09753 43.438 12.6374C43.438 19.0824 46.6386 23 52.1074 23ZM51.8278 19.0824C49.4662 19.0824 47.9747 17.3764 47.8504 14.375C48.4719 12.7637 50.1187 11.5948 51.8278 11.5948C53.9718 11.5948 55.5565 13.1429 55.5565 15.2912C55.5565 17.5343 54.034 19.0824 51.8278 19.0824Z" fill="white"/>
</svg>
